<svg xmlns="http://www.w3.org/2000/svg" class="efootball_footerlogo" width="700" height="700"><path class="st0" d="M339.995 196.02c25.379 0 48.073 10.981 63.934 28.551h59.543c-21.719-46.608-68.815-78.82-123.477-78.82-54.662 0-102.002 32.212-123.477 78.82h59.542c15.618-17.57 38.556-28.55 63.935-28.55zM339.995 367.326c-25.379 0-48.073-10.981-63.935-28.551h-59.542c21.475 46.609 68.815 78.82 123.477 78.82 54.662 0 101.758-32.211 123.477-78.82h-59.543c-15.861 17.57-38.555 28.55-63.934 28.55zM421.743 256.539H206.27c-1.464 8.052-2.44 16.593-2.44 25.134 0 8.54.732 17.082 2.44 25.135h215.474c2.44-8.053 3.66-16.35 3.66-25.135.245-8.785-1.22-17.082-3.66-25.134z"/><g><path class="st0" d="M477.38 489.338h-18.3l15.373 63.69h19.278z"/><path class="st0" d="M459.08 517.645h-13.422l8.54-34.896h11.714c4.636 0 8.297-3.66 8.297-8.296 0-4.637-3.66-8.297-8.297-8.297h-25.379l-22.206 87.117h18.302l4.636-18.79h21.474zM502.271 466.156h17.326v63.69h-17.326zM544 536.435H502.27v16.838H544c4.636 0 8.297-3.66 8.297-8.297 0-4.637-3.66-8.541-8.297-8.541zM559.373 466.156H576.7v63.69h-17.326zM601.101 536.435h-41.728v16.838h41.728c4.637 0 8.297-3.66 8.297-8.297 0-4.637-3.66-8.541-8.297-8.541z"/><g><path class="st0" d="M336.823 466.156h-49.537v16.838h49.537c4.636 0 8.297-3.66 8.297-8.297 0-4.637-3.66-8.541-8.297-8.541zM307.54 489.338h17.325v63.69H307.54z"/></g><g><path class="st0" d="M224.327 490.802c0 .976-.244 3.66-.244 5.857v25.378c0 2.44.244 5.125.244 6.101 1.464 13.421 12.201 24.159 25.623 25.623v-16.594c-3.905-1.22-7.077-4.392-8.053-8.54-.244-.977-.488-3.905-.488-7.078 0-2.684-.244-6.588-.244-12.2 0-5.37 0-9.518.244-12.202 0-3.416.244-6.345.488-7.077.732-4.392 3.904-7.809 8.053-9.029v-16.593c-13.422 2.196-24.159 12.933-25.623 26.354zM282.405 490.802c-1.464-13.421-12.201-24.158-25.378-25.866v16.593c4.148 1.22 7.32 4.637 8.052 9.03.244.731.244 3.66.488 7.076 0 2.684.244 6.833.244 12.201 0 5.613 0 9.517-.244 12.201 0 3.173-.244 6.101-.488 7.077-.976 4.149-3.904 7.32-8.052 8.541v16.594c13.42-1.708 23.914-12.202 25.378-25.623.244-.976.244-3.66.244-6.1 0-2.197.244-5.857.244-12.446 0-6.832 0-10.737-.244-12.933 0-2.684 0-5.125-.244-6.345z"/></g><g><path class="st0" d="M353.416 489.338h17.326v63.69h-17.326zM394.9 502.027c-1.464-.244-2.684-.488-4.636-.488H384.163c-4.148.488-7.32 4.149-7.32 8.297 0 4.637 3.66 8.297 8.297 8.297H390.264c.488 0 1.22 0 1.708.244 4.149.976 7.077 4.393 7.077 8.785 0 4.88-3.904 9.029-9.029 9.029h-12.445v16.838h12.445c14.153 0 25.867-11.47 25.867-25.867 0-12.445-9.03-22.938-20.986-25.135zM385.872 482.75c4.636.488 8.052 4.392 8.052 9.028v4.393h17.326v-3.66c0-13.178-9.517-23.915-22.206-26.111-.488 0-1.22-.244-2.196-.244-.732 0-2.685-.244-2.685-.244h-31.235v16.837h32.944z"/></g><g><path class="st0" d="M90.602 489.338h17.325v63.69H90.602zM140.383 482.75c4.636 0 8.297-3.66 8.297-8.297 0-4.637-3.66-8.297-8.297-8.297H90.602v16.838zM154.536 490.802c0 .976-.244 3.66-.244 5.857v25.378c0 2.44.244 5.125.244 6.101 1.464 13.421 12.201 24.159 25.379 25.623v-16.594c-3.905-1.22-7.077-4.392-8.053-8.54-.244-.977-.488-3.905-.488-7.078 0-2.684-.244-6.588-.244-12.2 0-5.37 0-9.518.244-12.202 0-3.416.244-6.345.488-7.077.732-4.392 3.904-7.809 8.053-9.029v-16.593c-13.178 2.196-23.915 12.933-25.379 26.354zM212.614 490.802c-1.464-13.421-12.201-24.158-25.623-25.866v16.593c4.149 1.22 7.321 4.637 8.053 9.03.244.731.244 3.66.488 7.076 0 2.684.244 6.833.244 12.201 0 5.613 0 9.517-.244 12.201 0 3.173-.244 6.101-.488 7.077-.976 4.149-3.904 7.32-8.053 8.541v16.594a29.528 29.528 0 0 0 25.623-25.623c0-.976.244-3.66.244-6.1V497.147c0-2.684 0-5.125-.244-6.345z"/><g><path class="st0" d="M115.004 500.807h27.819v16.838h-27.819z"/></g></g></g><g><path class="st0" d="M65.98 765.177c10.684 0 20.235 4.694 26.872 11.979h25.091C109.04 757.568 89.13 743.97 65.98 743.97c-22.987 0-42.899 13.598-51.964 33.186h25.091c6.637-7.285 16.188-11.98 26.873-11.98zM65.98 837.538c-10.685 0-20.236-4.695-26.873-11.98H14.016a57.346 57.346 0 0 0 52.126 33.186c23.149 0 42.898-13.76 51.963-33.347H93.014c-6.637 7.446-16.35 12.14-27.034 12.14zM100.622 790.754H9.645c-.648 3.4-.971 6.96-.971 10.522 0 3.562.323 7.123.971 10.523h90.977c.971-3.4 1.619-6.961 1.619-10.685 0-3.4-.648-6.96-1.619-10.36z"/><g><path class="st0" d="M552.27 782.336h-18.94l16.027 67.019h20.235z"/><path class="st0" d="M533.168 811.96h-14.083l9.065-36.747h12.303a8.705 8.705 0 0 0 8.742-8.741 8.705 8.705 0 0 0-8.742-8.742h-26.548l-23.473 91.625h19.264l4.856-19.75h22.663zM578.657 757.73h18.293v67.019h-18.293zM622.527 831.71h-43.87v17.645h43.87a8.705 8.705 0 0 0 8.741-8.742c0-4.856-3.885-8.903-8.741-8.903zM638.715 757.73h18.292v67.019h-18.292zM682.585 831.71h-43.87v17.645h43.87a8.705 8.705 0 0 0 8.741-8.742c0-4.856-3.885-8.903-8.741-8.903z"/><g><path class="st0" d="M404.635 757.73h-52.288v17.645h52.288a8.705 8.705 0 0 0 8.741-8.741c0-4.857-3.885-8.904-8.741-8.904zM373.716 782.174h18.292v67.019h-18.292z"/></g><g><path class="st0" d="M286.3 783.793c-.162 1.133-.324 3.723-.324 6.313 0 2.429-.162 6.476-.162 13.76 0 6.8 0 10.846.162 13.113.162 2.752.162 5.342.324 6.475 1.619 14.084 12.788 25.415 26.872 27.034v-17.483c-4.209-1.295-7.446-4.695-8.418-9.065-.162-.81-.485-4.047-.485-7.285-.162-2.752-.162-6.96-.162-12.789 0-5.827.162-10.036.162-12.788.161-3.562.323-6.637.485-7.447.81-4.532 4.21-8.094 8.418-9.389v-17.645c-14.084 1.78-25.415 13.112-26.872 27.196zM347.329 783.793c-1.457-14.245-12.789-25.415-26.872-27.196v17.321c4.37 1.295 7.608 5.019 8.418 9.39.161.809.323 3.885.485 7.446.162 2.914.162 7.123.162 12.789 0 5.99-.162 10.036-.162 12.788-.162 3.238-.324 6.475-.485 7.285-.972 4.37-4.21 7.77-8.418 9.065v17.321c14.083-1.618 25.253-12.95 26.872-27.034.162-1.133.324-3.723.324-6.475 0-2.266.162-6.313.162-13.112 0-7.285 0-11.332-.162-13.76-.162-2.105-.162-4.695-.324-5.828z"/></g><g><path class="st0" d="M421.956 782.174h18.293v67.019h-18.293zM465.502 795.61c-1.619-.323-2.752-.323-4.856-.485h-6.314c-4.37.485-7.77 4.209-7.77 8.741 0 4.857 4.047 8.904 8.904 8.904h5.342c.647 0 1.133 0 1.78.162 4.371.971 7.447 4.532 7.447 9.065 0 5.18-4.21 9.39-9.39 9.39h-12.95v17.644h12.95c14.894 0 27.197-12.14 27.197-27.196-.162-12.788-9.713-23.958-22.34-26.225zM456.113 775.375c4.856.486 8.58 4.695 8.58 9.551v4.695h18.292v-3.885c0-13.76-10.036-25.254-23.31-27.52-.324-.162-1.457-.162-2.267-.324-.81-.162-2.752-.162-2.752-.162H421.794v17.645h34.319z"/></g><g><path class="st0" d="M145.463 782.174h18.293v67.019h-18.293zM197.75 775.375a8.705 8.705 0 0 0 8.742-8.741 8.705 8.705 0 0 0-8.741-8.742h-52.288v17.645zM212.806 783.793c-.162 1.133-.324 3.723-.324 6.313 0 2.429-.162 6.476-.162 13.76 0 6.8 0 10.846.162 13.113.162 2.752.162 5.342.324 6.475 1.619 14.084 12.788 25.415 26.872 27.034v-17.483c-4.209-1.295-7.446-4.695-8.418-9.065-.162-.81-.485-4.047-.485-7.285-.162-2.752-.162-6.96-.162-12.789 0-5.827.162-10.036.162-12.788.161-3.562.323-6.637.485-7.447.81-4.532 4.21-8.094 8.418-9.389v-17.645c-14.084 1.78-25.253 13.112-26.872 27.196zM273.835 783.793c-1.457-14.245-12.789-25.415-26.872-27.196v17.321c4.37 1.295 7.608 5.019 8.418 9.39.161.809.323 3.885.485 7.446.162 2.914.162 7.123.162 12.789 0 5.99-.162 10.036-.162 12.788-.162 3.238-.324 6.475-.485 7.285-.972 4.37-4.21 7.77-8.418 9.065v17.321c14.083-1.618 25.253-12.95 26.872-27.034.162-1.133.324-3.723.324-6.475 0-2.266.162-6.313.162-13.112 0-7.285 0-11.332-.162-13.76 0-2.105-.162-4.695-.324-5.828z"/><g><path class="st0" d="M171.04 794.315h29.3v17.645h-29.3z"/></g></g></g></g></svg>